<mxfile host="azurediagrams.azureedge.net" modified="2020-07-15T22:24:51.548Z" agent="5.0 (Windows)" etag="PVjcid6aIEqI09EciKQn" version="13.3.9" type="device">
  <diagram id="jVC-SAE0BHUU8eVXwiPr" name="Page-1">
    <mxGraphModel dx="908" dy="529" grid="1" gridSize="10" guides="1" tooltips="1" connect="1" arrows="1" fold="1" page="1" pageScale="1" pageWidth="800" pageHeight="450" background="#FFFFFF" math="0" shadow="0">
      <root>
        <mxCell id="0" />
        <mxCell id="1" parent="0" />
        <mxCell id="xJEWHDarBOn7A4grkd1o-2" value="Logs, files, and &lt;br&gt;media (unstructured)" style="html=1;points=[];align=center;image;fontSize=12;labelBackgroundColor=none;fontFamily=Segoe UI;shape=image;aspect=fixed;image=img/lib/azure/general/files.svg;" parent="1" vertex="1">
          <mxGeometry x="60" y="113" width="36" height="36" as="geometry" />
        </mxCell>
        <mxCell id="xJEWHDarBOn7A4grkd1o-3" value="Business/custom&lt;br&gt;apps (structured)" style="html=1;points=[];align=center;image;fontSize=12;labelBackgroundColor=none;fontFamily=Segoe UI;shape=image;aspect=fixed;image=img/lib/azure/general/browser.svg;" parent="1" vertex="1">
          <mxGeometry x="60" y="293" width="36" height="36" as="geometry" />
        </mxCell>
        <mxCell id="Ys3zS5AyFQfYZhnhhRGL-2" value="" style="rounded=0;whiteSpace=wrap;html=1;glass=0;labelBackgroundColor=none;fontFamily=Segoe UI;fontSize=12;fontColor=#000000;align=left;labelPosition=center;verticalLabelPosition=middle;verticalAlign=top;spacingBottom=0;spacingTop=-25;fillColor=#F3F3F3;strokeColor=none;spacingLeft=2;" parent="1" vertex="1">
          <mxGeometry x="660" y="180" width="90" height="100" as="geometry" />
        </mxCell>
        <mxCell id="Ys3zS5AyFQfYZhnhhRGL-4" value="Web&lt;br&gt;Application" style="html=1;points=[];align=center;image;fontSize=12;labelBackgroundColor=none;fontFamily=Segoe UI;shape=image;aspect=fixed;image=img/lib/azure/general/dashboard.svg;" parent="1" vertex="1">
          <mxGeometry x="696.5" y="334" width="36" height="36" as="geometry" />
        </mxCell>
        <mxCell id="M-vUpikWmlQHqidaD2cz-3" value="" style="group" vertex="1" connectable="0" parent="1">
          <mxGeometry x="560" y="310" width="89" height="114" as="geometry" />
        </mxCell>
        <mxCell id="Ys3zS5AyFQfYZhnhhRGL-3" value="" style="rounded=0;whiteSpace=wrap;html=1;glass=0;labelBackgroundColor=none;fontFamily=Segoe UI;fontSize=12;fontColor=#000000;align=left;labelPosition=center;verticalLabelPosition=middle;verticalAlign=top;spacingBottom=0;spacingTop=-25;fillColor=#F3F3F3;strokeColor=none;spacingLeft=2;" parent="M-vUpikWmlQHqidaD2cz-3" vertex="1">
          <mxGeometry width="89" height="114" as="geometry" />
        </mxCell>
        <mxCell id="Ys3zS5AyFQfYZhnhhRGL-5" value="Azure&lt;br&gt;Cosmos DB" style="html=1;points=[];align=center;image;fontSize=12;labelBackgroundColor=none;fontFamily=Segoe UI;shape=image;aspect=fixed;image=img/lib/azure/databases/azure-cosmos-db.svg;" parent="M-vUpikWmlQHqidaD2cz-3" vertex="1">
          <mxGeometry x="29" y="24" width="36" height="36" as="geometry" />
        </mxCell>
        <mxCell id="M-vUpikWmlQHqidaD2cz-4" value="" style="group" vertex="1" connectable="0" parent="1">
          <mxGeometry x="550" y="28" width="219" height="130" as="geometry" />
        </mxCell>
        <mxCell id="Ys3zS5AyFQfYZhnhhRGL-1" value="Model and serve" style="rounded=0;whiteSpace=wrap;html=1;glass=0;labelBackgroundColor=none;fontFamily=Segoe UI;fontSize=12;fontColor=#000000;align=left;labelPosition=center;verticalLabelPosition=middle;verticalAlign=top;spacingBottom=0;spacingTop=-25;fillColor=#F3F3F3;strokeColor=none;spacingLeft=2;" parent="M-vUpikWmlQHqidaD2cz-4" vertex="1">
          <mxGeometry width="219" height="130" as="geometry" />
        </mxCell>
        <mxCell id="Ys3zS5AyFQfYZhnhhRGL-6" value="Azure Analysis&lt;br&gt;Services" style="html=1;points=[];align=center;image;fontSize=12;labelBackgroundColor=none;fontFamily=Segoe UI;shape=image;aspect=fixed;image=img/lib/azure/analytics/analysis-services.svg;" parent="M-vUpikWmlQHqidaD2cz-4" vertex="1">
          <mxGeometry x="140" y="29" width="36" height="36" as="geometry" />
        </mxCell>
        <mxCell id="M-vUpikWmlQHqidaD2cz-14" style="edgeStyle=orthogonalEdgeStyle;rounded=0;orthogonalLoop=1;jettySize=auto;html=1;sourcePerimeterSpacing=10;endArrow=block;endFill=1;targetPerimeterSpacing=10;strokeColor=#959595;strokeWidth=2;fontFamily=Segoe UI;fontSize=12;align=center;" edge="1" parent="M-vUpikWmlQHqidaD2cz-4" source="M-vUpikWmlQHqidaD2cz-2" target="Ys3zS5AyFQfYZhnhhRGL-6">
          <mxGeometry relative="1" as="geometry" />
        </mxCell>
        <mxCell id="M-vUpikWmlQHqidaD2cz-2" value="Azure Synapse&lt;br&gt;Analytics" style="html=1;points=[];align=center;image;fontSize=12;labelBackgroundColor=none;fontFamily=Segoe UI;shape=image;aspect=fixed;image=img/lib/azure/analytics/azure-synapse-analytics.svg;" vertex="1" parent="M-vUpikWmlQHqidaD2cz-4">
          <mxGeometry x="37.5" y="29" width="36" height="36" as="geometry" />
        </mxCell>
        <mxCell id="M-vUpikWmlQHqidaD2cz-5" value="" style="group" vertex="1" connectable="0" parent="1">
          <mxGeometry x="440" y="178" width="100" height="115" as="geometry" />
        </mxCell>
        <mxCell id="xJEWHDarBOn7A4grkd1o-8" value="Prep and Train" style="rounded=0;whiteSpace=wrap;html=1;glass=0;labelBackgroundColor=none;fontFamily=Segoe UI;fontSize=12;fontColor=#000000;align=left;labelPosition=center;verticalLabelPosition=middle;verticalAlign=top;spacingBottom=0;spacingTop=-25;fillColor=#F3F3F3;strokeColor=none;spacingLeft=2;" parent="M-vUpikWmlQHqidaD2cz-5" vertex="1">
          <mxGeometry width="100" height="115" as="geometry" />
        </mxCell>
        <mxCell id="M-vUpikWmlQHqidaD2cz-1" value="Azure&lt;br&gt;Databricks" style="html=1;points=[];align=center;image;fontSize=12;labelBackgroundColor=none;fontFamily=Segoe UI;shape=image;aspect=fixed;image=img/lib/azure/databases/azure-databricks.svg;" vertex="1" parent="M-vUpikWmlQHqidaD2cz-5">
          <mxGeometry x="32" y="25" width="36" height="36" as="geometry" />
        </mxCell>
        <mxCell id="M-vUpikWmlQHqidaD2cz-30" value="3" style="ellipse;aspect=fixed;strokeColor=none;labelBackgroundColor=none;fillColor=#A5CE00;fontColor=#303030;fontFamily=Segoe UI;verticalAlign=middle;labelPosition=center;verticalLabelPosition=middle;align=center;fontSize=12;html=0;" vertex="1" parent="M-vUpikWmlQHqidaD2cz-5">
          <mxGeometry x="8" y="1" width="24" height="24" as="geometry" />
        </mxCell>
        <mxCell id="M-vUpikWmlQHqidaD2cz-6" value="" style="group" vertex="1" connectable="0" parent="1">
          <mxGeometry x="310" y="183" width="100" height="110" as="geometry" />
        </mxCell>
        <mxCell id="xJEWHDarBOn7A4grkd1o-7" value="Store" style="rounded=0;whiteSpace=wrap;html=1;glass=0;labelBackgroundColor=none;fontFamily=Segoe UI;fontSize=12;fontColor=#000000;align=left;labelPosition=center;verticalLabelPosition=middle;verticalAlign=top;spacingBottom=0;spacingTop=-25;fillColor=#F3F3F3;strokeColor=none;spacingLeft=2;" parent="M-vUpikWmlQHqidaD2cz-6" vertex="1">
          <mxGeometry width="100" height="110" as="geometry" />
        </mxCell>
        <mxCell id="xJEWHDarBOn7A4grkd1o-6" value="Azure Data&lt;br&gt;Lake Storage" style="html=1;points=[];align=center;image;fontSize=12;labelBackgroundColor=none;fontFamily=Segoe UI;shape=image;aspect=fixed;image=img/lib/azure/storage/data-lake-storage-gen1.svg;" parent="M-vUpikWmlQHqidaD2cz-6" vertex="1">
          <mxGeometry x="34" y="20" width="36" height="36" as="geometry" />
        </mxCell>
        <mxCell id="M-vUpikWmlQHqidaD2cz-7" value="" style="group" vertex="1" connectable="0" parent="1">
          <mxGeometry x="180" y="183" width="100" height="110" as="geometry" />
        </mxCell>
        <mxCell id="xJEWHDarBOn7A4grkd1o-4" value="Ingest" style="rounded=0;whiteSpace=wrap;html=1;glass=0;labelBackgroundColor=none;fontFamily=Segoe UI;fontSize=12;fontColor=#000000;align=left;labelPosition=center;verticalLabelPosition=middle;verticalAlign=top;spacingBottom=0;spacingTop=-25;fillColor=#F3F3F3;strokeColor=none;spacingLeft=2;" parent="M-vUpikWmlQHqidaD2cz-7" vertex="1">
          <mxGeometry width="100" height="110" as="geometry" />
        </mxCell>
        <mxCell id="xJEWHDarBOn7A4grkd1o-5" value="Azure&lt;br&gt;Data Factory" style="html=1;points=[];align=center;image;fontSize=12;labelBackgroundColor=none;fontFamily=Segoe UI;shape=image;aspect=fixed;image=img/lib/azure/databases/data-factory.svg;" parent="M-vUpikWmlQHqidaD2cz-7" vertex="1">
          <mxGeometry x="30" y="20" width="36" height="36" as="geometry" />
        </mxCell>
        <mxCell id="M-vUpikWmlQHqidaD2cz-8" value="Power BI" style="shape=image;verticalLabelPosition=bottom;labelBackgroundColor=none;verticalAlign=top;aspect=fixed;imageAspect=0;image=data:image/png,iVBORw0KGgoAAAANSUhEUgAAAQAAAAEACAMAAABrrFhUAAAANlBMVEX/uQD/+/D/5aD/wiD/3ID/y0D/vRD/uQD/////7sD/9uD/xjD/02D/2HD/6bD/4ZD/8tD/z1BDh/PQAAAAAXRSTlPA24Ia1gAAAAlwSFlzAAAdhwAAHYcBj+XxZQAABWNJREFUeJzt3dmaoyAQBeB2IyFxSd7/ZefrGUEgIU4XSlXDOZeZjBZ/GxdU+Pq61B0AAEBAEZwBAAAEFMEZAABAQBGcAQAABBTBGQAAQEARnAEAAAQUwRkAAEBAEZwBAAAEFMEZAABAQBGcAQAABBTBGQAAQEARnAEAAAQUwRkAAEBAEZwBAAAEFMEZAABAQBGcAQAABBTBGQAAQEARnAEAAAQUwRkAAEBAEZwBAAAEFMEZAABAQBGcAQAABBTBGQAAQEARnAFAOoAa+l7nT9s/OwEAanxc+XJbkg3SAFTfMDb/b9pEgiSA4cbd/Ov12vRsAL2A5n9HKx6AVkDb/+WRIEAHkNP+JAEygLf9NwyHQW//88gOMGwrv01HHI9/HjXqrQjynpAKYP2b6agGEeIchu7ERRAB7A/gRl3xMVGzKUQTl0cEMPK3lCPQIbH74oG2NBrAmLrhHRdlTsVb2iJpAGbDSzsJOyZ3szOiLY0GYNbJ/gO4OD8C2m+ABGCOgQtplUdnSNocSQBjkvnhWa9IZ9JySQDmIJi1mfHolANhCQALFwD13OPoJJUDAADkXuPxAUDRAGqatdYfuxyKBrD97kv8tLtgAOX0+cT7/QoG8Dpeo6srF2C4ehnPKEc0wOwDxLp+ywW4BokcCooFGEKAyOU3AAAAAAAAAAAAAABpJQAAAOE/AQAAAAAAAABAXOMwf/d0P6b9p0uKBNiea7vtPl5RIoByX6947ny5RACvn7fZecS2QICgSTuP9hUIEHT0Xz/vCAsECN8w+rwXKBAgbNHnR/sAAAAAAAAA9QCMrdZ6cdtYFcDTvISjt/PjmgDG7bPGvoZTEcDT/dBeI9UDoPxTZHONVA/AFHy8bgL1AOjg4/Vl1HoAwovE9WWsegDCj9cFAwAAAADA7wbohqDjuyqAof0+ujWt+4Z9TQCLLdt5xboiAPddj+3+Rz0A/tm9HWelGoDg8s4OtFANwBhUbt72qQYgvAdo9gLVAITXt+abAABAUQDxIdwqAYiPIZIXYGYDiD7gkRcg/ygyphs/+oBHVgC1/ittMDESQLeuMjp0UVYAc9ZFG9iQNpaYuZEXe84tK4AphjayHQ3AXOvGNoGcAOa660ZpCBXADGEX2+wyAtwbf1k/DXFESdvC94Ma5AOw7d955jAaIsBW29ttIBvA0ASLygXgXO/pN3+XTADd1u9EHtuRCuB2eTz6IdgDZwBQw+RedO89eR4NeWTpe1iduxmeC/BpzfkAXnp9OAGII8qmAVzGl8kVuAAS2p80v8A9nF+BCSA2vtB/JWmGCbX4lbAA6LTBnRMnWem8wa4YAN4dhH+U5Gl21DS/noxkAngs6UN7HzLRUjf8i704PBdgXdsx45qfM9NU3h6hpPACrBcSkaPJLwYIjg72DnnY0rVF4Y2k2J20M6byOAcgPE82P9cAxvRhhCeVpqEBDK3XcycnzTan31fe+SeP9lLa3zLsiV3wGzhlLPeTALyWOq/Ien/r7caK11Jn2g5vi0k54Y3nrPkGt54a5wUAX8AdJdX52Ju2pT27/edNuNiZX4H2d11mZpxgjrS7+Xrr92yYN0lOm83nxBknu6nV7ZsRkZ/9rJfxpQfn3s+Rr2vdv379qGDKTQAIKIIzAACAgCI4AwAACCiCMwAAgIAiOAMAAAgogjMAAICAIjgDAAAIKIIzAACAgCI4AwAACCiCMwAAgIAiOAMAAAgogjMAAICAIjgDAAAIKIIzAACAgCI4AwAACCiCMwAAgIAiOAMAAAgogjMAAICAIjgDAAAIKIIzAACAgCI4AwAACCiCMwAAgIAiOAMAAAgogjMAqBrgcrn8AcCkEVht4iJXAAAAAElFTkSuQmCC;fontFamily=Segoe UI;" vertex="1" parent="1">
          <mxGeometry x="685.75" y="198.75" width="44.5" height="44.5" as="geometry" />
        </mxCell>
        <mxCell id="M-vUpikWmlQHqidaD2cz-11" style="edgeStyle=orthogonalEdgeStyle;rounded=0;orthogonalLoop=1;jettySize=auto;html=1;sourcePerimeterSpacing=10;endArrow=block;endFill=1;targetPerimeterSpacing=10;strokeColor=#959595;strokeWidth=2;fontFamily=Segoe UI;fontSize=12;align=center;" edge="1" parent="1" source="Ys3zS5AyFQfYZhnhhRGL-5" target="Ys3zS5AyFQfYZhnhhRGL-4">
          <mxGeometry relative="1" as="geometry" />
        </mxCell>
        <mxCell id="M-vUpikWmlQHqidaD2cz-12" style="edgeStyle=orthogonalEdgeStyle;rounded=0;orthogonalLoop=1;jettySize=auto;html=1;sourcePerimeterSpacing=40;endArrow=block;endFill=1;targetPerimeterSpacing=10;strokeColor=#959595;strokeWidth=2;fontFamily=Segoe UI;fontSize=12;align=center;" edge="1" parent="1" source="Ys3zS5AyFQfYZhnhhRGL-6" target="M-vUpikWmlQHqidaD2cz-8">
          <mxGeometry relative="1" as="geometry" />
        </mxCell>
        <mxCell id="M-vUpikWmlQHqidaD2cz-13" style="edgeStyle=orthogonalEdgeStyle;rounded=0;orthogonalLoop=1;jettySize=auto;html=1;entryX=0;entryY=0.5;entryDx=0;entryDy=0;sourcePerimeterSpacing=20;endArrow=block;endFill=1;targetPerimeterSpacing=20;strokeColor=#959595;strokeWidth=2;fontFamily=Segoe UI;fontSize=12;align=center;" edge="1" parent="1" target="Ys3zS5AyFQfYZhnhhRGL-1">
          <mxGeometry relative="1" as="geometry">
            <mxPoint x="360" y="170" as="sourcePoint" />
            <Array as="points">
              <mxPoint x="360" y="93" />
            </Array>
          </mxGeometry>
        </mxCell>
        <mxCell id="M-vUpikWmlQHqidaD2cz-16" style="edgeStyle=orthogonalEdgeStyle;rounded=0;orthogonalLoop=1;jettySize=auto;html=1;sourcePerimeterSpacing=10;endArrow=none;endFill=0;targetPerimeterSpacing=10;strokeColor=#959595;strokeWidth=2;fontFamily=Segoe UI;fontSize=12;align=center;" edge="1" parent="1" source="xJEWHDarBOn7A4grkd1o-3">
          <mxGeometry relative="1" as="geometry">
            <mxPoint x="150" y="210" as="targetPoint" />
            <Array as="points">
              <mxPoint x="150" y="311" />
              <mxPoint x="150" y="220" />
            </Array>
          </mxGeometry>
        </mxCell>
        <mxCell id="M-vUpikWmlQHqidaD2cz-17" style="edgeStyle=orthogonalEdgeStyle;rounded=0;orthogonalLoop=1;jettySize=auto;html=1;sourcePerimeterSpacing=10;endArrow=block;endFill=1;targetPerimeterSpacing=10;strokeColor=#959595;strokeWidth=2;fontFamily=Segoe UI;fontSize=12;align=center;" edge="1" parent="1" source="xJEWHDarBOn7A4grkd1o-5" target="xJEWHDarBOn7A4grkd1o-6">
          <mxGeometry relative="1" as="geometry" />
        </mxCell>
        <mxCell id="M-vUpikWmlQHqidaD2cz-18" style="edgeStyle=orthogonalEdgeStyle;rounded=0;orthogonalLoop=1;jettySize=auto;html=1;sourcePerimeterSpacing=10;endArrow=block;endFill=1;targetPerimeterSpacing=10;strokeColor=#959595;strokeWidth=2;fontFamily=Segoe UI;fontSize=12;align=center;" edge="1" parent="1" source="xJEWHDarBOn7A4grkd1o-6" target="M-vUpikWmlQHqidaD2cz-1">
          <mxGeometry relative="1" as="geometry" />
        </mxCell>
        <mxCell id="M-vUpikWmlQHqidaD2cz-22" style="edgeStyle=orthogonalEdgeStyle;rounded=0;orthogonalLoop=1;jettySize=auto;html=1;sourcePerimeterSpacing=10;endArrow=block;endFill=1;targetPerimeterSpacing=10;strokeColor=#959595;strokeWidth=2;fontFamily=Segoe UI;fontSize=12;align=center;" edge="1" parent="1" source="M-vUpikWmlQHqidaD2cz-1" target="M-vUpikWmlQHqidaD2cz-8">
          <mxGeometry relative="1" as="geometry" />
        </mxCell>
        <mxCell id="M-vUpikWmlQHqidaD2cz-23" style="edgeStyle=orthogonalEdgeStyle;rounded=0;orthogonalLoop=1;jettySize=auto;html=1;entryX=1;entryY=0.25;entryDx=0;entryDy=0;sourcePerimeterSpacing=40;endArrow=block;endFill=1;targetPerimeterSpacing=10;strokeColor=#959595;strokeWidth=2;fontFamily=Segoe UI;fontSize=12;align=center;" edge="1" parent="1" source="M-vUpikWmlQHqidaD2cz-2" target="xJEWHDarBOn7A4grkd1o-8">
          <mxGeometry relative="1" as="geometry">
            <Array as="points">
              <mxPoint x="606" y="207" />
            </Array>
          </mxGeometry>
        </mxCell>
        <mxCell id="M-vUpikWmlQHqidaD2cz-25" style="edgeStyle=orthogonalEdgeStyle;rounded=0;orthogonalLoop=1;jettySize=auto;html=1;entryX=1;entryY=0.5;entryDx=0;entryDy=0;sourcePerimeterSpacing=10;endArrow=block;endFill=1;targetPerimeterSpacing=10;strokeColor=#959595;strokeWidth=2;fontFamily=Segoe UI;fontSize=12;align=center;startArrow=block;startFill=1;" edge="1" parent="1" source="Ys3zS5AyFQfYZhnhhRGL-5" target="xJEWHDarBOn7A4grkd1o-8">
          <mxGeometry relative="1" as="geometry">
            <Array as="points">
              <mxPoint x="607" y="236" />
            </Array>
          </mxGeometry>
        </mxCell>
        <mxCell id="M-vUpikWmlQHqidaD2cz-15" style="edgeStyle=orthogonalEdgeStyle;rounded=0;orthogonalLoop=1;jettySize=auto;html=1;sourcePerimeterSpacing=10;endArrow=block;endFill=1;targetPerimeterSpacing=10;strokeColor=#959595;strokeWidth=2;fontFamily=Segoe UI;fontSize=12;align=center;" edge="1" parent="1" source="xJEWHDarBOn7A4grkd1o-2" target="xJEWHDarBOn7A4grkd1o-5">
          <mxGeometry relative="1" as="geometry">
            <Array as="points">
              <mxPoint x="150" y="131" />
              <mxPoint x="150" y="221" />
            </Array>
          </mxGeometry>
        </mxCell>
        <mxCell id="M-vUpikWmlQHqidaD2cz-27" value="1" style="ellipse;aspect=fixed;strokeColor=none;labelBackgroundColor=none;fillColor=#A5CE00;fontColor=#303030;fontFamily=Segoe UI;verticalAlign=middle;labelPosition=center;verticalLabelPosition=middle;align=center;fontSize=12;html=0;" vertex="1" parent="1">
          <mxGeometry x="280" y="210" width="24" height="24" as="geometry" />
        </mxCell>
        <mxCell id="M-vUpikWmlQHqidaD2cz-29" value="2" style="ellipse;aspect=fixed;strokeColor=none;labelBackgroundColor=none;fillColor=#A5CE00;fontColor=#303030;fontFamily=Segoe UI;verticalAlign=middle;labelPosition=center;verticalLabelPosition=middle;align=center;fontSize=12;html=0;" vertex="1" parent="1">
          <mxGeometry x="410" y="210" width="24" height="24" as="geometry" />
        </mxCell>
        <mxCell id="M-vUpikWmlQHqidaD2cz-31" value="4" style="ellipse;aspect=fixed;strokeColor=none;labelBackgroundColor=none;fillColor=#A5CE00;fontColor=#303030;fontFamily=Segoe UI;verticalAlign=middle;labelPosition=center;verticalLabelPosition=middle;align=center;fontSize=12;html=0;" vertex="1" parent="1">
          <mxGeometry x="592.5" y="170" width="24" height="24" as="geometry" />
        </mxCell>
        <mxCell id="M-vUpikWmlQHqidaD2cz-32" value="5" style="ellipse;aspect=fixed;strokeColor=none;labelBackgroundColor=none;fillColor=#A5CE00;fontColor=#303030;fontFamily=Segoe UI;verticalAlign=middle;labelPosition=center;verticalLabelPosition=middle;align=center;fontSize=12;html=0;" vertex="1" parent="1">
          <mxGeometry x="620" y="210" width="24" height="24" as="geometry" />
        </mxCell>
        <mxCell id="M-vUpikWmlQHqidaD2cz-33" value="6" style="ellipse;aspect=fixed;strokeColor=none;labelBackgroundColor=none;fillColor=#A5CE00;fontColor=#303030;fontFamily=Segoe UI;verticalAlign=middle;labelPosition=center;verticalLabelPosition=middle;align=center;fontSize=12;html=0;" vertex="1" parent="1">
          <mxGeometry x="695.5" y="143" width="24" height="24" as="geometry" />
        </mxCell>
        <mxCell id="M-vUpikWmlQHqidaD2cz-35" value="7" style="ellipse;aspect=fixed;strokeColor=none;labelBackgroundColor=none;fillColor=#A5CE00;fontColor=#303030;fontFamily=Segoe UI;verticalAlign=middle;labelPosition=center;verticalLabelPosition=middle;align=center;fontSize=12;html=0;" vertex="1" parent="1">
          <mxGeometry x="595" y="256" width="24" height="24" as="geometry" />
        </mxCell>
      </root>
    </mxGraphModel>
  </diagram>
</mxfile>
